<svg width="0" height="0" class="hidden">
  <symbol version="1.1" x="0px" y="0px" enable-background="new 0 0 100 100" xml:space="preserve" id="archive" sodipodiDocname="archive.svg" inkscapeVersion="1.3.2 (091e20e, 2023-11-25)" xmlnsInkscape="http://www.inkscape.org/namespaces/inkscape" xmlnsSodipodi="http://sodipodi.sourceforge.net/DTD/sodipodi-0.dtd" xmlns="http://www.w3.org/2000/svg" xmlnsSvg="http://www.w3.org/2000/svg" viewBox="5 -10 80 108">
    <defs id="defs5"></defs>
    <sodipodi:namedview id="namedview5" pagecolor="#ffffff" bordercolor="#666666" borderopacity="1.0" inkscapeShowpageshadow="2" inkscapePageopacity="0.0" inkscapePagecheckerboard="0" inkscapeDeskcolor="#d1d1d1" inkscapeZoom="2.36" inkscapeCx="49.788136" inkscapeCy="50" inkscapeWindowWidth="1264" inkscapeWindowHeight="701" inkscapeWindowX="0" inkscapeWindowY="25" inkscapeWindowMaximized="0" inkscapeCurrentLayer="svg5"></sodipodi:namedview>
    <g id="Your_Icon" transform="matrix(0.9045,0,0,0.891,-0.3651975,-0.55)">
      <polygon fill="#000000" points="76.555,0 87.125,11.56 13.185,11.56 25.783,0 " id="polygon1"></polygon>
      <path fill="#000000" d="M 87.125,100 H 13.185 V 13.555 h 73.94 z M 82.351,17.964 H 17.959 V 41.543 H 82.35 V 17.964 Z M 19.959,19.96 H 80.35 V 39.546 H 19.959 Z M 82.351,72.319 H 17.959 V 95.898 H 82.35 V 72.319 Z M 19.959,74.315 H 80.35 V 93.902 H 19.959 Z M 82.351,44.988 H 17.959 V 68.566 H 82.35 V 44.988 Z M 19.959,46.984 H 80.35 V 66.571 H 19.959 Z m 36.195,-17.23 c 0,-3.302 -2.691,-5.988 -6,-5.988 -3.308,0 -6,2.686 -6,5.988 0,3.301 2.691,5.986 6,5.986 3.309,0 6,-2.685 6,-5.986 z m -2,0 c 0,2.201 -1.794,3.991 -4,3.991 -2.205,0 -4,-1.791 -4,-3.991 0,-2.201 1.794,-3.992 4,-3.992 2.206,0 4,1.791 4,3.992 z m 2,27.023 c 0,-3.301 -2.691,-5.986 -6,-5.986 -3.308,0 -6,2.686 -6,5.986 0,3.302 2.691,5.987 6,5.987 3.309,10e-4 6,-2.685 6,-5.987 z m -2,0 c 0,2.201 -1.794,3.991 -4,3.991 -2.205,0 -4,-1.79 -4,-3.991 0,-2.2 1.794,-3.991 4,-3.991 2.206,0 4,1.791 4,3.991 z m 2,27.332 c 0,-3.302 -2.691,-5.987 -6,-5.987 -3.308,0 -6,2.686 -6,5.987 0,3.301 2.691,5.986 6,5.986 3.309,0.001 6,-2.685 6,-5.986 z m -2,0 c 0,2.2 -1.794,3.99 -4,3.99 -2.205,0 -4,-1.79 -4,-3.99 0,-2.201 1.794,-3.991 4,-3.991 2.206,0 4,1.79 4,3.991 z" id="path1"></path>
    </g>
  </symbol>
</svg>