<svg width="0" height="0" class="hidden">
  <symbol version="1.1" x="0px" y="0px" enable-background="new 0 0 100 100" xml:space="preserve" id="board-setup" sodipodiDocname="board-setup.svg" inkscapeVersion="1.3.2 (091e20e, 2023-11-25)" xmlnsInkscape="http://www.inkscape.org/namespaces/inkscape" xmlnsSodipodi="http://sodipodi.sourceforge.net/DTD/sodipodi-0.dtd" xmlns="http://www.w3.org/2000/svg" xmlnsSvg="http://www.w3.org/2000/svg" viewBox="0 0 80 80">
    <defs id="defs2"></defs>
    <sodipodi:namedview id="namedview2" pagecolor="#ffffff" bordercolor="#666666" borderopacity="1.0" inkscapeShowpageshadow="2" inkscapePageopacity="0.0" inkscapePagecheckerboard="0" inkscapeDeskcolor="#d1d1d1" showgrid="false" showguides="true" inkscapeZoom="7.94" inkscapeCx="46.473552" inkscapeCy="45.843829" inkscapeWindowWidth="1624" inkscapeWindowHeight="997" inkscapeWindowX="0" inkscapeWindowY="25" inkscapeWindowMaximized="0" inkscapeCurrentLayer="svg2">
      <inkscape:grid id="grid4" units="px" originx="0" originy="0" spacingx="1" spacingy="1" empcolor="#0099e5" empopacity="0.30196078" color="#0099e5" opacity="0.14901961" empspacing="5" dotted="false" gridanglex="30" gridanglez="30" visible="false"></inkscape:grid>
    </sodipodi:namedview>
    <g id="g1" transform="matrix(0.97058829,0,0,0.97058829,0.20588016,0.20588016)">
      <path d="m 59.285711,7.0000018 c -8.667115,0 -15.714282,7.0471672 -15.714282,15.7142822 0,8.66713 7.047167,15.714285 15.714282,15.714285 8.667119,0 15.714285,-7.047155 15.714285,-15.714285 0,-8.667115 -7.047166,-15.7142822 -15.714285,-15.7142822 z m 0,1.9642856 c 7.605546,0 13.749999,6.1444596 13.749999,13.7499966 0,7.605546 -6.144453,13.749999 -13.749999,13.749999 -7.605536,0 -13.749997,-6.144453 -13.749997,-13.749999 0,-7.605537 6.144461,-13.7499966 13.749997,-13.7499966 z" id="path4"></path>
      <circle id="circle10" cx="59.285713" cy="59.285713" r="15.714285"></circle>
      <path d="m 22.714284,74.999996 c -8.667115,0 -15.7142822,-7.047166 -15.7142822,-15.714275 0,-8.66713 7.0471672,-15.714285 15.7142822,-15.714285 8.667119,0 15.714285,7.047155 15.714285,15.714285 0,8.667109 -7.047166,15.714275 -15.714285,15.714275 z m 0,-1.964286 c 7.605546,0 13.749999,-6.144453 13.749999,-13.749989 0,-7.605546 -6.144453,-13.749999 -13.749999,-13.749999 -7.605536,0 -13.7499965,6.144453 -13.7499965,13.749999 0,7.605536 6.1444605,13.749989 13.7499965,13.749989 z" id="path11"></path>
      <circle id="circle11" cx="22.714287" cy="-22.714287" r="15.714285" transform="scale(1,-1)"></circle>
    </g>
  </symbol>
</svg>