<svg width="0" height="0" class="hidden">
  <symbol xmlnsDc="http://purl.org/dc/elements/1.1/" xmlnsCc="http://creativecommons.org/ns#" xmlnsRdf="http://www.w3.org/1999/02/22-rdf-syntax-ns#" xmlnsSvg="http://www.w3.org/2000/svg" xmlns="http://www.w3.org/2000/svg" xmlnsSodipodi="http://sodipodi.sourceforge.net/DTD/sodipodi-0.dtd" xmlnsInkscape="http://www.inkscape.org/namespaces/inkscape" id="computer-play" version="1.1" inkscapeVersion="0.91 r13725" sodipodiDocname="computer-play.svg" viewBox="0 0 200 200">
    <defs id="defs4157"></defs>
    <sodipodi:namedview id="base" pagecolor="#ffffff" bordercolor="#666666" borderopacity="1.0" inkscapePageopacity="0.0" inkscapePageshadow="2" inkscapeZoom="4.655" inkscapeCx="100" inkscapeCy="100" inkscapeDocumentUnits="px" inkscapeCurrentLayer="layer1" showgrid="true" units="px" showguides="true" inkscapeGuideBbox="true" inkscapeObjectNodes="true" inkscapeWindowWidth="1660" inkscapeWindowHeight="1097" inkscapeWindowX="197" inkscapeWindowY="142" inkscapeWindowMaximized="0">
      <inkscape:grid type="xygrid" id="grid4738"></inkscape:grid>
      <sodipodi:guide position="75,145" orientation="0,1" id="guide4740"></sodipodi:guide>
      <sodipodi:guide position="75,85" orientation="0,1" id="guide4742"></sodipodi:guide>
    </sodipodi:namedview>
    <metadata id="metadata4160">
      <rdf:RDF>
        <cc:Work rdfAbout="">
          <dc:format>image/svg+xml</dc:format>
          <dc:type rdfResource="http://purl.org/dc/dcmitype/StillImage"></dc:type>
          <dc:title></dc:title>
        </cc:Work>
      </rdf:RDF>
    </metadata>
    <g inkscapeLabel="Layer 1" inkscapeGroupmode="layer" id="layer1" transform="translate(0,-852.36216)">
      <g transform="matrix(1.4666667,0,0,1.4666667,25.062241,874.63201)" id="g13" inkscapeExportXdpi="90" inkscapeExportYdpi="90">
        <path inkscapeConnectorCurvature="0" d="M 6.866,13.238 C 5.84,13.238 5,14.078 5,15.104 l 0,56.938 c 0,1.026 0.84,1.866 1.866,1.866 l 86.268,0 c 1.026,0 1.866,-0.84 1.866,-1.866 l 0,-56.938 c 0,-1.026 -0.84,-1.866 -1.866,-1.866 l -86.268,0 z m 82.868,51.19 c 0,1.026 -0.84,1.866 -1.866,1.866 l -75.741,0 c -1.026,0 -1.866,-0.84 -1.866,-1.866 l 0,-43.831 c 0,-1.026 0.84,-1.866 1.866,-1.866 l 75.741,0 c 1.026,0 1.866,0.84 1.866,1.866 l 0,43.831 z" id="path15"></path>
      </g>
      <path inkscapeConnectorCurvature="0" d="m 126.79318,996.20987 c -3.54493,-0.33291 -6.84347,-3.63145 -6.84347,-7.50493 0,-0.4532 0,-0.82572 0,-1.20265 l -43.11413,0 c 0,0.37693 0,0.75093 0,1.20265 0,3.87494 -3.298541,7.17348 -6.843474,7.50493 -3.327865,0.31241 -3.819202,2.86734 -3.819202,4.06413 0,1.1968 0.19206,3.9952 3.993739,3.9952 3.800135,0 22.875594,0 22.875594,0 l 15.289993,0 c 0,0 14.48628,0 18.28788,0 3.80013,0 3.99374,-2.7969 3.99374,-3.9952 0.001,-1.19679 -0.4928,-3.75319 -3.82067,-4.06413 z" id="path17" inkscapeExportXdpi="90" inkscapeExportYdpi="90"></path>
      <path inkscapeConnectorCurvature="0" d="m 98.395577,913.36217 c -13.25376,0 -23.999999,10.74624 -23.999999,23.99998 0,13.2538 10.746239,24.00004 23.999999,24.00004 13.253763,0 24.000003,-10.74624 24.000003,-24.00004 0,-13.25374 -10.74624,-23.99998 -24.000003,-23.99998 z m -11.000002,37.99997 0,-27.99998 28.011525,13.99999 z" id="path3" inkscapeExportXdpi="90" inkscapeExportYdpi="90" sodipodiNodetypes="ssssscccc"></path>
    </g>
  </symbol>
</svg>