<svg width="0" height="0" class="hidden">
  <symbol version="1.1" id="cross-mark" sodipodiDocname="cross-mark.svg" inkscapeVersion="1.3.2 (091e20e, 2023-11-25)" xmlnsInkscape="http://www.inkscape.org/namespaces/inkscape" xmlnsSodipodi="http://sodipodi.sourceforge.net/DTD/sodipodi-0.dtd" xmlns="http://www.w3.org/2000/svg" xmlnsSvg="http://www.w3.org/2000/svg" viewBox="0 0 49.503437 49.502327">
    <sodipodi:namedview id="namedview2306" pagecolor="#ffffff" bordercolor="#666666" borderopacity="1.0" inkscapePageshadow="2" inkscapePageopacity="0.0" inkscapePagecheckerboard="0" inkscapeDocumentUnits="pt" showgrid="false" fitMarginTop="0" fitMarginLeft="0" fitMarginRight="0" fitMarginBottom="0" inkscapeZoom="6.1628571" inkscapeCx="2.433936" inkscapeCy="8.2753825" inkscapeWindowWidth="1312" inkscapeWindowHeight="429" inkscapeWindowX="0" inkscapeWindowY="25" inkscapeWindowMaximized="0" inkscapeCurrentLayer="svg2304" inkscapeShowpageshadow="2" inkscapeDeskcolor="#d1d1d1"></sodipodi:namedview>
    <defs id="defs2226"></defs>
    <path d="m 4.6686328,1.125 c -0.90833,0 -1.81749,0.34041 -2.51059,1.0336 -1.38641998,1.38558 -1.38641998,3.63509 0,5.02058 L 19.731213,24.75152 2.1580428,42.32386 c -1.38641998,1.3864 -1.38641998,3.63509 0,5.02057 1.38639,1.38642 3.63507,1.38642 5.02056,0 L 24.751793,29.77211 42.324983,47.34443 c 1.3864,1.38642 3.63508,1.38642 5.02057,0 1.3864,-1.38639 1.3864,-3.63423 0,-5.02057 L 29.772373,24.75152 47.345553,7.17918 c 1.3864,-1.3864 1.3864,-3.63508 0,-5.02058 -1.3864,-1.3864 -3.63508,-1.3864 -5.02057,0 L 24.751793,19.73094 7.1786028,2.1586 C 6.4853928,1.46539 5.5762328,1.125 4.6680028,1.125 Z" id="path2228"></path>
  </symbol>
</svg>