<svg width="0" height="0" class="hidden">
  <symbol version="1.1" id="game-info" x="0px" y="0px" enable-background="new 0 0 512 512" xml:space="preserve" sodipodiDocname="game-info.svg" inkscapeVersion="1.3.2 (091e20e, 2023-11-25)" xmlnsInkscape="http://www.inkscape.org/namespaces/inkscape" xmlnsSodipodi="http://sodipodi.sourceforge.net/DTD/sodipodi-0.dtd" xmlns="http://www.w3.org/2000/svg" xmlnsSvg="http://www.w3.org/2000/svg" viewBox="25.6 -51.2 409.6 552.96">
    <defs id="defs8"></defs>
    <sodipodi:namedview id="namedview8" pagecolor="#ffffff" bordercolor="#666666" borderopacity="1.0" inkscapeShowpageshadow="2" inkscapePageopacity="0.0" inkscapePagecheckerboard="0" inkscapeDeskcolor="#d1d1d1" inkscapeZoom="2.36" inkscapeCx="50" inkscapeCy="50.211864" inkscapeWindowWidth="736" inkscapeWindowHeight="480" inkscapeWindowX="0" inkscapeWindowY="25" inkscapeWindowMaximized="0" inkscapeCurrentLayer="Ebene_1"></sodipodi:namedview>
    <g id="g8" transform="translate(-25.6,-50.72)">
      <g id="g1" transform="matrix(1.188,0,0,1.188,-48.128,-51.888)">
        <rect x="64" y="440" width="384" height="16" id="rect1"></rect>
      </g>
      <g id="g2" transform="matrix(1.188,0,0,1.188,-48.128,-51.888)">
        <rect x="88" y="96" width="16" height="320" id="rect2"></rect>
      </g>
      <g id="g3" transform="matrix(1.188,0,0,1.188,-48.128,-51.888)">
        <rect x="152" y="192" width="16" height="224" id="rect3"></rect>
      </g>
      <g id="g4" transform="matrix(1.188,0,0,1.188,-48.128,-51.888)">
        <rect x="216" y="256" width="16" height="160" id="rect4"></rect>
      </g>
      <g id="g5" transform="matrix(1.188,0,0,1.188,-48.128,-51.888)">
        <rect x="280" y="160" width="16" height="256" id="rect5"></rect>
      </g>
      <g id="g6" transform="matrix(1.188,0,0,1.188,-48.128,-51.888)">
        <rect x="344" y="288" width="16" height="128" id="rect6"></rect>
      </g>
      <g id="g7" transform="matrix(1.188,0,0,1.188,-48.128,-51.888)">
        <rect x="408" y="352" width="16" height="64" id="rect7"></rect>
      </g>
    </g>
  </symbol>
</svg>