<svg width="0" height="0" class="hidden">
  <symbol version="1.1" id="good" sodipodiDocname="good.svg" inkscapeVersion="1.3.2 (091e20e, 2023-11-25)" xmlnsInkscape="http://www.inkscape.org/namespaces/inkscape" xmlnsSodipodi="http://sodipodi.sourceforge.net/DTD/sodipodi-0.dtd" xmlns="http://www.w3.org/2000/svg" xmlnsSvg="http://www.w3.org/2000/svg" viewBox="0 0 51.660728 49.5">
    <sodipodi:namedview id="namedview1648" pagecolor="#ffffff" bordercolor="#666666" borderopacity="1.0" inkscapePageshadow="2" inkscapePageopacity="0.0" inkscapePagecheckerboard="0" inkscapeDocumentUnits="px" showgrid="false" fitMarginTop="0" fitMarginLeft="0" fitMarginRight="0" fitMarginBottom="0" inkscapeZoom="3.0814286" inkscapeCx="15.252666" inkscapeCy="14.765878" inkscapeWindowWidth="1512" inkscapeWindowHeight="950" inkscapeWindowX="0" inkscapeWindowY="25" inkscapeWindowMaximized="0" inkscapeCurrentLayer="svg1646" inkscapeShowpageshadow="2" inkscapeDeskcolor="#d1d1d1"></sodipodi:namedview>
    <defs id="defs1606"></defs>
    <path d="M 48.872415,16.501708 H 37.880004 c -0.92095,0 -1.667242,0.744893 -1.667242,1.664127 v 0.100047 -5.08e-4 c -2.794626,-0.629 -5.385751,-1.948896 -7.536343,-3.838325 -2.316751,-2.479384 -3.506618,-5.8026894 -3.289782,-9.1858344 0,-1.8636933 -2.033978,-3.8166402 -4.27934,-4.0825186 -1.434019,-0.17730661 -4.946228,0.1000381 -6.557839,6.5123294 V 7.6705165 C 14.02695,10.357332 13.933171,13.10919 14.271584,15.824653 H 7.6690253 c -2.0006991,-0.02574 -3.8818624,0.948456 -5.0126635,2.596285 -1.4449489,2.041587 -2.60116002,6.035475 0.055612,13.557693 l 2.9901238,10.772241 c 0.3071529,1.58437 1.1571541,3.012283 2.4046434,4.0389 1.2474603,1.026214 2.813936,1.587415 4.431138,1.585898 h 8.058426 c 2.978684,0 10.870326,-0.49924 15.616871,-2.440712 v 0.5547 c 0,0.919232 0.746293,1.664126 1.667251,1.664126 h 10.992911 -5.1e-4 c 0.920959,0 1.667251,-0.744894 1.667251,-1.664126 V 18.165969 c 0,-0.441293 -0.175657,-0.864753 -0.488275,-1.176766 -0.312599,-0.312021 -0.736864,-0.48736 -1.178976,-0.48736 z m -12.659653,25.71562 c -2.445303,1.653217 -9.9147,2.828945 -15.61688,2.828945 H 12.537455 C 11.687954,45.046782 10.865249,44.749098 10.212708,44.205789 9.5606951,43.66198 9.1205553,42.907205 8.9692109,42.073182 8.9583387,42.028623 8.9468893,41.973134 8.9360171,41.929055 L 5.912613,31.034468 C 5.9017409,31.00124 5.8902914,30.968109 5.8793231,30.92353 3.4673002,24.133779 4.7231599,21.260707 5.3791458,20.339447 5.8862696,19.57624 6.7516842,19.127515 7.6685828,19.152272 h 8.5030212 c 0.488767,0 0.95272,-0.214453 1.269292,-0.58591 0.316582,-0.371458 0.454033,-0.862765 0.376119,-1.344229 -0.01087,-0.05551 -0.878288,-5.358409 -0.03329,-8.7534822 0.622234,-2.4739285 1.633961,-3.9829894 2.700877,-4.0162074 0.634644,0.018822 1.219674,0.3462008 1.567024,0.8766418 -0.201452,4.2410123 1.340279,8.3805848 4.268411,11.4601958 3.045755,3.028647 7.591473,4.382133 9.89234,4.90375 z" id="path1608"></path>
  </symbol>
</svg>