<svg width="0" height="0" class="hidden">
  <symbol version="1.1" id="help" x="0px" y="0px" enable-background="new 0 0 100 100" xml:space="preserve" sodipodiDocname="help.svg" inkscapeVersion="1.3.2 (091e20e, 2023-11-25)" xmlnsInkscape="http://www.inkscape.org/namespaces/inkscape" xmlnsSodipodi="http://sodipodi.sourceforge.net/DTD/sodipodi-0.dtd" xmlns="http://www.w3.org/2000/svg" xmlnsSvg="http://www.w3.org/2000/svg" viewBox="5 -10 100 135">
    <defs id="defs3"></defs>
    <sodipodi:namedview id="namedview3" pagecolor="#ffffff" bordercolor="#666666" borderopacity="1.0" inkscapeShowpageshadow="2" inkscapePageopacity="0.0" inkscapePagecheckerboard="0" inkscapeDeskcolor="#d1d1d1" inkscapeZoom="2.36" inkscapeCx="41.101695" inkscapeCy="39.194915" inkscapeWindowWidth="1056" inkscapeWindowHeight="654" inkscapeWindowX="0" inkscapeWindowY="25" inkscapeWindowMaximized="0" inkscapeCurrentLayer="Layer_1"></sodipodi:namedview>
    <g id="g2" transform="matrix(1.0798618,0,0,1.0798618,6.4062179,9.9860801)">
      <g id="g1" transform="translate(-4.9999971,-6.0000034)">
        <path d="m 63.368162,37.992386 q 0,3.100781 -1.107422,5.537109 -1.107422,2.404688 -2.910938,4.271485 -1.771875,1.803516 -4.081641,3.385547 -2.309765,1.582031 -4.904297,3.069141 v 7.119141 h -5.663672 v -9.650391 q 2.056641,-1.170704 4.429688,-2.562891 2.404687,-1.392188 3.923438,-2.816016 1.835156,-1.645312 2.847656,-3.385547 1.0125,-1.771875 1.0125,-4.492969 0,-3.575391 -2.436328,-5.315625 -2.404688,-1.771875 -6.233204,-1.771875 -3.417187,0 -6.486328,1.075781 -3.0375,1.075781 -4.809375,2.183203 h -0.316407 v -6.454688 q 2.214844,-0.854296 5.600391,-1.51875 3.417188,-0.696093 6.454688,-0.696093 6.802735,0 10.726172,3.322265 3.955079,3.290626 3.955079,8.701173 z M 50.870114,74.031059 h -6.454688 v -6.676172 h 6.454688 z" id="text1" aria-label="?"></path>
      </g>
      <path d="m 45.000001,4 c 22.056,0 39.999997,17.944 39.999997,40 0,22.056 -17.943997,40 -39.999997,40 -22.056,0 -39.999999,-17.944 -39.999999,-40 0,-22.056 17.943999,-40 39.999999,-40 m 0,-5 C 20.147001,-1 2e-6,19.147 2e-6,44 c 0,24.853 20.146999,45 44.999999,45 24.853,0 44.999997,-20.147 44.999997,-45 0,-24.853 -20.146997,-45 -44.999997,-45 z" id="path2"></path>
    </g>
  </symbol>
</svg>