<svg width="0" height="0" class="hidden">
  <symbol version="1.1" id="hotspot" sodipodiDocname="hotspot.svg" inkscapeVersion="1.3.2 (091e20e, 2023-11-25)" xmlnsInkscape="http://www.inkscape.org/namespaces/inkscape" xmlnsSodipodi="http://sodipodi.sourceforge.net/DTD/sodipodi-0.dtd" xmlns="http://www.w3.org/2000/svg" xmlnsSvg="http://www.w3.org/2000/svg" viewBox="0 0 60 60">
    <sodipodi:namedview id="namedview54" pagecolor="#ffffff" bordercolor="#666666" borderopacity="1.0" inkscapeShowpageshadow="2" inkscapePageopacity="0.0" inkscapePagecheckerboard="0" inkscapeDeskcolor="#d1d1d1" inkscapeDocumentUnits="pt" inkscapeZoom="3.8245596" inkscapeCx="33.337171" inkscapeCy="36.474788" inkscapeWindowWidth="1480" inkscapeWindowHeight="678" inkscapeWindowX="0" inkscapeWindowY="25" inkscapeWindowMaximized="0" inkscapeCurrentLayer="svg54"></sodipodi:namedview>
    <defs id="defs20"></defs>
    <path d="m 34.992685,6.0892548 c -2.33731,6.2636702 -3.41178,13.1639002 -0.79488,15.8737602 2.85063,2.99205 7.29071,5.23497 10.42346,9.62916 4.15928,5.84189 4.86101,18.69576 -10.14178,22.06015 6.31056,-3.31901 7.66549,-12.94574 0.84268,-18.97613 1.77619,5.84229 -1.49583,9.58136 -5.56193,8.22653 -3.97293,-1.35524 -6.59022,1.49582 -6.49773,4.76782 0.0462,2.24333 0.93467,4.1593 3.2246,5.23499 -9.76853,-1.72919 -13.69406,-9.81634 -13.69406,-15.98591 0,-8.13293 7.24485,-9.25409 3.59816,-16.07766 4.34687,0.37275 5.8423,3.22419 5.42134,7.89804 -0.28037,3.08605 2.94547,5.18796 5.32969,3.78574 1.91555,-1.16806 1.86979,-3.41138 0.18716,-5.09439 -6.62201,-8.58141 7.66345,-21.3424002 7.66345,-21.3424002 z" fill-rule="evenodd" id="path21"></path>
  </symbol>
</svg>