<svg width="0" height="0" class="hidden">
  <symbol version="1.1" id="human-vs-computer" inkscapeVersion="1.3.2 (091e20e, 2023-11-25)" sodipodiDocname="human-vs-computer.svg" xmlnsInkscape="http://www.inkscape.org/namespaces/inkscape" xmlnsSodipodi="http://sodipodi.sourceforge.net/DTD/sodipodi-0.dtd" xmlns="http://www.w3.org/2000/svg" xmlnsSvg="http://www.w3.org/2000/svg" viewBox="0 0 21.166666 21.166667">
    <sodipodi:namedview id="namedview1" pagecolor="#ffffff" bordercolor="#666666" borderopacity="1.0" inkscapeShowpageshadow="2" inkscapePageopacity="0.0" inkscapePagecheckerboard="0" inkscapeDeskcolor="#d1d1d1" inkscapeDocumentUnits="mm" inkscapeZoom="1.6934021" inkscapeCx="21.849507" inkscapeCy="53.442712" inkscapeWindowWidth="1064" inkscapeWindowHeight="674" inkscapeWindowX="0" inkscapeWindowY="25" inkscapeWindowMaximized="0" inkscapeCurrentLayer="layer1"></sodipodi:namedview>
    <defs id="defs1"></defs>
    <g inkscapeLabel="Layer 1" inkscapeGroupmode="layer" id="layer1" transform="translate(-92.138422,-100.09849)">
      <g id="g1" transform="matrix(0.64077682,0,0,0.64077682,42.579589,49.577519)">
        <path d="m 95.536127,99.579653 1.339612,-1.360059 h 3.964641 3.96464 l 1.33962,1.360059 1.33961,1.360067 h -6.64387 -6.643872 z m 9.792473,0 c -0.44977,-0.497004 -0.83779,-0.544031 -4.48822,-0.544031 -3.650427,0 -4.038444,0.04704 -4.48822,0.544031 -0.490633,0.542137 -0.475102,0.544017 4.48822,0.544017 4.96333,0 4.97885,-0.002 4.48822,-0.544017 z M 96.488166,93.323342 V 89.77974 h 4.352214 4.35222 v 3.543602 3.808184 h -4.35222 -4.352214 z m 7.888384,0 v -2.727564 h -3.53617 -3.53617 v 2.727564 2.992146 h 3.53617 3.53617 z" id="path4821" inkscapeConnectorCurvature="0" inkscapeExportXdpi="90" inkscapeExportYdpi="90" sodipodiNodetypes="ccccccccccsssccccccccccccccccccc"></path>
        <path inkscapeConnectorCurvature="0" d="m 92.691112,98.880486 -4.488305,-1.914869 v -1.241081 c 0.423835,-0.418322 0.6878,-1.802575 0.6878,-1.802575 v -1.942454 c 0,-1.273593 -1.032597,-2.156465 -2.305893,-2.156465 -1.274044,0 -2.306639,0.882872 -2.306639,2.156465 v 1.942306 c 0,0 0.264115,1.384253 0.6878,1.802871 v 1.240785 l -4.48741,1.914869 c -0.328241,0.32839 -0.328241,1.732032 -8.99e-4,2.059382 h 12.21354 c 0.327496,-0.32735 0.328242,-1.730992 0,-2.059234 z" id="path4844" inkscapeExportXdpi="90" inkscapeExportYdpi="90"></path>
      </g>
    </g>
  </symbol>
</svg>