<svg width="0" height="0" class="hidden">
  <symbol version="1.1" id="human-vs-human" inkscapeVersion="1.3.2 (091e20e, 2023-11-25)" sodipodiDocname="human-vs-human.svg" xmlnsInkscape="http://www.inkscape.org/namespaces/inkscape" xmlnsSodipodi="http://sodipodi.sourceforge.net/DTD/sodipodi-0.dtd" xmlns="http://www.w3.org/2000/svg" xmlnsSvg="http://www.w3.org/2000/svg" viewBox="0 0 21.166666 21.166667">
    <sodipodi:namedview id="namedview1" pagecolor="#888888" bordercolor="#666666" borderopacity="1.0" inkscapeShowpageshadow="2" inkscapePageopacity="0.0" inkscapePagecheckerboard="0" inkscapeDeskcolor="#d1d1d1" inkscapeDocumentUnits="mm" inkscapeZoom="1.6934021" inkscapeCx="21.849507" inkscapeCy="53.442712" inkscapeWindowWidth="1064" inkscapeWindowHeight="674" inkscapeWindowX="0" inkscapeWindowY="25" inkscapeWindowMaximized="0" inkscapeCurrentLayer="layer1"></sodipodi:namedview>
    <defs id="defs1"></defs>
    <g inkscapeLabel="Layer 1" inkscapeGroupmode="layer" id="layer1" transform="translate(-92.138422,-100.09849)">
      <g id="g1" transform="translate(4.894738,-3.4416667)">
        <path inkscapeExportYdpi="90" inkscapeExportXdpi="90" id="path5444" d="m 97.079134,116.36563 -2.87599,-1.227 v -0.79525 c 0.271583,-0.26806 0.440725,-1.15505 0.440725,-1.15505 v -1.24467 c 0,-0.81609 -0.661662,-1.38181 -1.477557,-1.38181 -0.816374,0 -1.478035,0.56572 -1.478035,1.38181 v 1.24458 c 0,0 0.169239,0.88699 0.440725,1.15523 v 0.79506 l -2.875416,1.227 c -0.210329,0.21043 -0.210329,1.10984 -5.77e-4,1.3196 h 7.826121 c 0.209851,-0.20976 0.210329,-1.10917 0,-1.3195 z" inkscapeConnectorCurvature="0"></path>
        <path inkscapeConnectorCurvature="0" d="m 106.40064,116.36563 -2.876,-1.227 v -0.79525 c 0.27159,-0.26806 0.44073,-1.15505 0.44073,-1.15505 v -1.24467 c 0,-0.81609 -0.66166,-1.38181 -1.47756,-1.38181 -0.81637,0 -1.47803,0.56572 -1.47803,1.38181 v 1.24458 c 0,0 0.16924,0.88699 0.44072,1.15523 v 0.79506 l -2.875415,1.227 c -0.210328,0.21043 -0.210328,1.10984 -5.09e-4,1.3196 h 7.826124 c 0.20985,-0.20976 0.21033,-1.10917 0,-1.3195 z" id="path5446" inkscapeExportXdpi="90" inkscapeExportYdpi="90"></path>
      </g>
    </g>
  </symbol>
</svg>
