<svg width="0" height="0" class="hidden">
  <symbol version="1.1" id="letter-marker" sodipodiDocname="letter-marker.svg" inkscapeVersion="1.3.2 (091e20e, 2023-11-25)" xmlnsInkscape="http://www.inkscape.org/namespaces/inkscape" xmlnsSodipodi="http://sodipodi.sourceforge.net/DTD/sodipodi-0.dtd" xmlns="http://www.w3.org/2000/svg" xmlnsSvg="http://www.w3.org/2000/svg" viewBox="0 0 49.5 49.500191">
    <defs id="defs830"></defs>
    <sodipodi:namedview id="namedview828" pagecolor="#ffffff" bordercolor="#666666" borderopacity="1.0" inkscapePageshadow="2" inkscapePageopacity="0.0" inkscapePagecheckerboard="0" inkscapeDocumentUnits="pt" showgrid="false" fitMarginTop="0" fitMarginLeft="0" fitMarginRight="0" fitMarginBottom="0" inkscapeZoom="8.7155961" inkscapeCx="26.733685" inkscapeCy="37.174738" inkscapeWindowWidth="1616" inkscapeWindowHeight="997" inkscapeWindowX="0" inkscapeWindowY="25" inkscapeWindowMaximized="0" inkscapeCurrentLayer="svg826" inkscapeShowpageshadow="2" inkscapeDeskcolor="#d1d1d1"></sodipodi:namedview>
    <g id="g19094" transform="matrix(0.99999573,0,0,0.99999573,-0.00211308,-0.00211318)">
      <path d="m 24.752219,48.377319 c -6.26572,0 -12.274543,-2.489045 -16.7054951,-6.919606 C 3.6162587,37.026856 1.1271181,31.01726 1.1271181,24.752218 c 0,-6.265041 2.4890461,-12.274543 6.9196058,-16.705494 C 12.477578,3.6162588 18.487175,1.1271182 24.752219,1.1271182 c 6.265041,0 12.274542,2.4890432 16.705494,6.9196058 4.430467,4.430857 6.919607,10.440453 6.919607,16.705494 0,4.14725 -1.091586,8.221021 -3.16521,11.812646 -2.073627,3.591627 -5.05581,6.573811 -8.647438,8.647437 -3.591625,2.073625 -7.665394,3.165211 -11.812645,3.165211 z m 0,-43.8755428 c -5.370659,0 -10.521458,2.1335041 -14.318855,5.9311978 -3.7976943,3.797693 -5.9312071,8.948394 -5.9312071,14.318852 0,5.37047 2.1335128,10.521458 5.9312071,14.318864 3.797696,3.797694 8.948386,5.931198 14.318855,5.931198 5.370466,0 10.521455,-2.133504 14.318852,-5.931198 3.797694,-3.797693 5.93121,-8.948394 5.93121,-14.318864 0,-5.370458 -2.133516,-10.521446 -5.93121,-14.318852 C 35.273378,6.6352803 30.122685,4.5017762 24.752219,4.5017762 Z" id="path824" inkscapeExportFilename="/Users/patrick/dev/littlego/resource/icon/markup-types/circle.png" inkscapeExportXdpi="96" inkscapeExportYdpi="96"></path>
      <path d="M 28.698375,25.580878 24.778801,14.173689 20.613156,25.580878 Z m -5.747536,-15.23888 h 3.954726 l 9.368308,25.81997 H 32.442182 L 29.823275,28.428281 H 19.611292 l -2.794674,7.733687 H 13.231 Z" id="text2677" aria-label="A"></path>
    </g>
  </symbol>
</svg>