<svg width="0" height="0" class="hidden">
  <symbol version="1.1" id="none" sodipodiDocname="none.svg" inkscapeVersion="1.3.2 (091e20e, 2023-11-25)" xmlnsInkscape="http://www.inkscape.org/namespaces/inkscape" xmlnsSodipodi="http://sodipodi.sourceforge.net/DTD/sodipodi-0.dtd" xmlns="http://www.w3.org/2000/svg" xmlnsSvg="http://www.w3.org/2000/svg" viewBox="0 0 80 80">
    <sodipodi:namedview id="namedview64" pagecolor="#ffffff" bordercolor="#666666" borderopacity="1.0" inkscapeShowpageshadow="2" inkscapePageopacity="0.0" inkscapePagecheckerboard="0" inkscapeDeskcolor="#d1d1d1" inkscapeDocumentUnits="pt" inkscapeZoom="1.836134" inkscapeCx="44.114427" inkscapeCy="4.3569805" inkscapeWindowWidth="968" inkscapeWindowHeight="661" inkscapeWindowX="0" inkscapeWindowY="25" inkscapeWindowMaximized="0" inkscapeCurrentLayer="svg64"></sodipodi:namedview>
    <defs id="defs21"></defs>
    <g id="g64" transform="matrix(0.14256748,0,0,0.14256748,-9.898618,0.08082047)">
      <path d="M 462,106.4 H 238 c -16.336,0 -32.004,6.4922 -43.559,18.043 -11.551,11.555 -18.043,27.223 -18.043,43.559 v 224 c 0,16.336 6.4922,32.004 18.043,43.559 11.555,11.551 27.223,18.043 43.559,18.043 h 224 c 16.336,0 32.004,-6.4922 43.559,-18.043 11.551,-11.555 18.043,-27.223 18.043,-43.559 v -224 c 0,-16.336 -6.4922,-32.004 -18.043,-43.559 C 494.004,112.892 478.336,106.4 462,106.4 Z M 490,392 c 0,7.4258 -2.9492,14.547 -8.1992,19.801 -5.2539,5.25 -12.375,8.1992 -19.801,8.1992 h -224 c -7.4258,0 -14.547,-2.9492 -19.801,-8.1992 -5.25,-5.2539 -8.1992,-12.375 -8.1992,-19.801 V 168 c 0,-7.4258 2.9492,-14.547 8.1992,-19.801 5.2539,-5.25 12.375,-8.1992 19.801,-8.1992 h 224 c 7.4258,0 14.547,2.9492 19.801,8.1992 5.25,5.2539 8.1992,12.375 8.1992,19.801 z" id="path22"></path>
      <path d="m 276.64,369.6 h 39.199 L 423.359,190.4 H 384.16 Z" id="path24"></path>
    </g>
  </symbol>
</svg>