<svg width="0" height="0" class="hidden">
  <symbol version="1.1" id="source-code" x="0px" y="0px" enable-background="new 0 0 100 100" xml:space="preserve" sodipodiDocname="source-code.svg" inkscapeVersion="1.3.2 (091e20e, 2023-11-25)" xmlnsInkscape="http://www.inkscape.org/namespaces/inkscape" xmlnsSodipodi="http://sodipodi.sourceforge.net/DTD/sodipodi-0.dtd" xmlns="http://www.w3.org/2000/svg" xmlnsSvg="http://www.w3.org/2000/svg" viewBox="0 0 80 80">
    <defs id="defs6"></defs>
    <sodipodi:namedview id="namedview6" pagecolor="#ffffff" bordercolor="#666666" borderopacity="1.0" inkscapeShowpageshadow="2" inkscapePageopacity="0.0" inkscapePagecheckerboard="0" inkscapeDeskcolor="#d1d1d1" inkscapeZoom="2.36" inkscapeCx="40.254237" inkscapeCy="-19.491525" inkscapeWindowWidth="1248" inkscapeWindowHeight="701" inkscapeWindowX="0" inkscapeWindowY="25" inkscapeWindowMaximized="0" inkscapeCurrentLayer="Layer_1"></sodipodi:namedview>
    <g id="g6" transform="matrix(0.66,0,0,0.66,7,33.4)">
      <path d="M 2.343,14.1 C 0.938,13.162 0,11.289 0,9.648 0,8.008 0.703,6.486 2.46,5.666 H 2.343 C 10.66,0.746 22.258,-5.814 29.99,-10.383 V 0.512 C 26.944,2.269 22.844,4.261 12.535,9.767 l 0.117,0.116 c 5.506,2.461 11.832,6.209 17.338,9.489 v 11.012 z" id="path4"></path>
      <path d="m 97.657,5.9 c 1.404,0.938 2.343,2.812 2.343,4.452 0,1.64 -0.703,3.162 -2.461,3.982 h 0.118 C 89.34,19.254 77.741,25.814 70.01,30.383 V 19.488 c 3.046,-1.756 7.146,-3.748 17.455,-9.254 L 87.348,10.118 C 81.843,7.657 75.516,3.909 70.01,0.629 v -11.012 z" id="path5"></path>
      <path d="M 46.401,31.844 H 39.39 l 14.09,-43.688 h 7.13 z" id="path6"></path>
    </g>
  </symbol>
</svg>