<svg width="0" height="0" class="hidden">
  <symbol version="1.1" id="square" sodipodiDocname="square.svg" inkscapeVersion="1.1.2 (b8e25be8, 2022-02-05)" xmlnsInkscape="http://www.inkscape.org/namespaces/inkscape" xmlnsSodipodi="http://sodipodi.sourceforge.net/DTD/sodipodi-0.dtd" xmlns="http://www.w3.org/2000/svg" xmlnsSvg="http://www.w3.org/2000/svg" viewBox="0 0 49.504436 49.504436">
    <defs id="defs1374"></defs>
    <sodipodi:namedview id="namedview1372" pagecolor="#ffffff" bordercolor="#666666" borderopacity="1.0" inkscapePageshadow="2" inkscapePageopacity="0.0" inkscapePagecheckerboard="0" inkscapeDocumentUnits="pt" showgrid="false" fitMarginTop="0" fitMarginLeft="0" fitMarginRight="0" fitMarginBottom="0" inkscapeZoom="6.1628571" inkscapeCx="28.152527" inkscapeCy="21.986555" inkscapeWindowWidth="1614" inkscapeWindowHeight="997" inkscapeWindowX="0" inkscapeWindowY="25" inkscapeWindowMaximized="1" inkscapeCurrentLayer="svg1370"></sodipodi:namedview>
    <path d="M 43.653994,48.379438 H 5.8504438 c -1.253457,0 -2.4551603,-0.497853 -3.3415676,-1.383879 C 1.6228527,46.109181 1.125,44.907449 1.125,43.653994 V 5.8504438 C 1.125,4.5969868 1.6228527,3.3952835 2.5088762,2.5088762 3.3952549,1.6228527 4.5969868,1.125 5.8504438,1.125 H 43.653994 c 1.253455,0 2.455158,0.4978527 3.341565,1.3838762 0.886026,0.8863787 1.383879,2.0881106 1.383879,3.3415676 V 43.653994 c 0,1.253455 -0.497853,2.455158 -1.383879,3.341565 -0.886378,0.886026 -2.08811,1.383879 -3.341565,1.383879 z M 5.8504438,4.2752958 c -0.4176921,0 -0.8185243,0.1659633 -1.1138587,0.4612893 C 4.4412476,5.0319195 4.2752958,5.4327517 4.2752958,5.8504438 V 43.653994 c 0,0.417689 0.1659633,0.818521 0.4612893,1.113858 0.2953344,0.295336 0.6961666,0.46129 1.1138587,0.46129 H 43.653994 c 0.417689,0 0.818521,-0.165963 1.113858,-0.46129 0.295336,-0.295337 0.46129,-0.696169 0.46129,-1.113858 V 5.8504438 c 0,-0.4176921 -0.165963,-0.8185243 -0.46129,-1.1138587 C 44.472515,4.4412476 44.071683,4.2752958 43.653994,4.2752958 Z" id="path1368" inkscapeExportFilename="/Users/patrick/dev/littlego/resource/icon/markup-types/square.png" inkscapeExportXdpi="96" inkscapeExportYdpi="96"></path>
  </symbol>
</svg>