<svg width="0" height="0" class="hidden">
  <symbol version="1.1" id="stones-overlapping-black-and-white-icon" sodipodiDocname="stones-overlapping-black-and-white-icon.svg" inkscapeVersion="1.3.2 (091e20e, 2023-11-25)" xmlnsInkscape="http://www.inkscape.org/namespaces/inkscape" xmlnsSodipodi="http://sodipodi.sourceforge.net/DTD/sodipodi-0.dtd" xmlns="http://www.w3.org/2000/svg" xmlnsSvg="http://www.w3.org/2000/svg" viewBox="0 0 65.249999 49.50026">
    <sodipodi:namedview id="namedview971" pagecolor="#ffffff" bordercolor="#666666" borderopacity="1.0" inkscapePageshadow="2" inkscapePageopacity="0.0" inkscapePagecheckerboard="0" inkscapeDocumentUnits="px" showgrid="false" fitMarginTop="0" fitMarginLeft="0" fitMarginRight="0" fitMarginBottom="0" inkscapeZoom="6.3196107" inkscapeCx="44.306527" inkscapeCy="39.005567" inkscapeWindowWidth="1520" inkscapeWindowHeight="980" inkscapeWindowX="0" inkscapeWindowY="25" inkscapeWindowMaximized="0" inkscapeCurrentLayer="svg969" inkscapeShowpageshadow="2" inkscapeDeskcolor="#d1d1d1"></sodipodi:namedview>
    <defs id="defs881"></defs>
    <g id="g1403">
      <path id="path883" d="m 24.749997,1.1249963 c -13.098805,0 -23.6250007,10.6038867 -23.6250007,23.6250007 0,13.098804 10.6038867,23.625 23.6250007,23.625 2.908152,0 5.687425,-0.524815 8.252929,-1.480957 C 24.033622,43.556568 17.624996,34.932004 17.624996,24.749997 H 3.4643517 V 24.125973 C 3.7760106,12.664264 13.210337,3.4643517 24.749997,3.4643517 c 1.739826,0 3.431698,0.2139618 5.05371,0.6108399 C 30.828469,3.5071167 31.89981,3.0130317 33.011715,2.600094 30.442386,1.6478756 27.660627,1.1249963 24.749997,1.1249963 Z"></path>
      <path d="m 40.500121,1.1249952 c -13.098804,0 -23.625126,10.6040218 -23.625126,23.6251358 0,13.098804 10.604012,23.625135 23.625126,23.625135 11.773438,0 21.441943,-8.577058 23.313237,-19.726599 0.233869,-1.247656 0.311648,-2.573031 0.311648,-3.898536 0,-13.098804 -10.526321,-23.6251358 -23.625125,-23.6251358 z M 19.214107,24.126373 C 19.525766,12.664664 28.960462,3.4641272 40.500121,3.4641272 c 11.695609,0 21.286004,9.5124258 21.286004,21.2080338 v 0.0778 H 19.214107 v -0.623838 z" id="path948"></path>
    </g>
  </symbol>
</svg>