<svg width="0" height="0" class="hidden">
  <symbol version="1.1" id="stones-overlapping-white-icon" inkscapeVersion="1.1.2 (b8e25be8, 2022-02-05)" sodipodiDocname="stones-overlapping-white-icon.svg" xmlnsInkscape="http://www.inkscape.org/namespaces/inkscape" xmlnsSodipodi="http://sodipodi.sourceforge.net/DTD/sodipodi-0.dtd" xmlns="http://www.w3.org/2000/svg" xmlnsSvg="http://www.w3.org/2000/svg" xmlnsRdf="http://www.w3.org/1999/02/22-rdf-syntax-ns#" xmlnsCc="http://creativecommons.org/ns#" xmlnsDc="http://purl.org/dc/elements/1.1/" viewBox="0 0 24.031066 17.462502">
    <defs id="defs885"></defs>
    <sodipodi:namedview id="base" pagecolor="#ffffff" bordercolor="#666666" borderopacity="1.0" inkscapePageopacity="0.0" inkscapePageshadow="2" inkscapeZoom="6.9162083" inkscapeCx="31.303279" inkscapeCy="37.375971" inkscapeDocumentUnits="px" inkscapeCurrentLayer="layer1" showgrid="false" fitMarginTop="0" fitMarginLeft="0" fitMarginRight="0" fitMarginBottom="0" inkscapeWindowWidth="1312" inkscapeWindowHeight="969" inkscapeWindowX="0" inkscapeWindowY="25" inkscapeWindowMaximized="0" inkscapePagecheckerboard="0"></sodipodi:namedview>
    <metadata id="metadata888">
      <rdf:RDF>
        <cc:Work rdfAbout="">
          <dc:format>image/svg+xml</dc:format>
          <dc:type rdfResource="http://purl.org/dc/dcmitype/StillImage"></dc:type>
        </cc:Work>
      </rdf:RDF>
    </metadata>
    <g inkscapeLabel="Layer 1" inkscapeGroupmode="layer" id="layer1" transform="translate(-98.20644,-34.521089)">
      <g id="g3625" transform="matrix(1.0000077,0,0,1.0000768,-8.5283659e-4,-0.00331965)">
        <path id="path67" d="m 106.93725,34.918855 c -4.59497,0 -8.333851,3.737783 -8.333851,8.333342 0,4.595558 3.738881,8.333858 8.333851,8.333858 1.22562,0 2.39045,-0.266345 3.43959,-0.743624 -0.25123,-0.114294 -0.49556,-0.241019 -0.73278,-0.378788 -0.84252,0.317233 -1.75474,0.491959 -2.70681,0.491959 -4.24772,0 -7.703394,-3.456215 -7.703394,-7.703922 0,-4.247114 3.455674,-7.702889 7.703394,-7.702889 0.95224,0 1.86468,0.174103 2.70733,0.491443 0.23703,-0.137637 0.48124,-0.264076 0.73226,-0.378272 -1.04917,-0.477228 -2.21382,-0.743107 -3.43959,-0.743107 z"></path>
        <path d="m 101.41449,42.749735 c -0.1114,4.053333 2.70341,5.685334 2.82312,5.752891 l 0.90606,0.510224 -0.47051,-0.927411 c -1.72681,-3.402666 -1.36593,-7.908744 0.83912,-10.4806 l 1.02222,-1.191701 -1.40268,0.705184 c -0.14814,0.07465 -3.61304,1.859557 -3.71733,5.631413 z m 2.17245,4.400596 c -0.73126,-0.786966 -1.60237,-2.192004 -1.54194,-4.383412 0.0521,-1.882667 1.07615,-3.237928 1.98164,-4.073485 -1.2717,2.43852 -1.44949,5.636745 -0.4397,8.456897 z" id="path69" inkscapeConnectorCurvature="0" inkscapeExportFilename="/Users/patrick/dev/littlego/resource/icon/go-motifs/white-stone.png" inkscapeExportXdpi="96" inkscapeExportYdpi="96"></path>
        <g id="g1201" transform="translate(2.864675)">
          <path d="m 110.64165,34.918619 c -4.59497,0 -8.33424,3.738074 -8.33424,8.333633 0,4.595559 3.73927,8.333633 8.33424,8.333633 4.59497,0 8.33423,-3.738667 8.33423,-8.333633 0,-4.595559 -3.73869,-8.333633 -8.33423,-8.333633 z m 0,16.036748 c -4.24772,0 -7.70372,-3.456001 -7.70372,-7.703708 0,-4.247114 3.456,-7.703115 7.70372,-7.703115 4.24771,0 7.70371,3.456001 7.70371,7.703115 0,4.247707 -3.456,7.703708 -7.70371,7.703708 z" id="path1197" inkscapeConnectorCurvature="0" inkscapeExportFilename="/Users/patrick/dev/littlego/resource/icon/go-motifs/white-stone.png" inkscapeExportXdpi="96" inkscapeExportYdpi="96"></path>
          <path d="m 105.11868,42.749735 c -0.1114,4.053333 2.70341,5.685334 2.82312,5.752891 l 0.90606,0.510224 -0.47051,-0.927411 c -1.72681,-3.402666 -1.36593,-7.908744 0.83912,-10.4806 l 1.02222,-1.191701 -1.40268,0.705184 c -0.14814,0.07465 -3.61304,1.859557 -3.71733,5.631413 z m 2.17245,4.400596 c -0.73126,-0.786966 -1.60237,-2.192004 -1.54194,-4.383412 0.0521,-1.882667 1.07615,-3.237928 1.98164,-4.073485 -1.2717,2.43852 -1.44949,5.636745 -0.4397,8.456897 z" id="path1199" inkscapeConnectorCurvature="0" inkscapeExportFilename="/Users/patrick/dev/littlego/resource/icon/go-motifs/white-stone.png" inkscapeExportXdpi="96" inkscapeExportYdpi="96"></path>
        </g>
      </g>
    </g>
  </symbol>
</svg>